<?xml version="1.0" encoding="utf-8"?>
<!-- Generator: Adobe Illustrator 25.2.1, SVG Export Plug-In . SVG Version: 6.00 Build 0)  -->
<svg version="1.1" id="Layer_1" xmlns="http://www.w3.org/2000/svg" xmlns:xlink="http://www.w3.org/1999/xlink" x="0px" y="0px"
	 viewBox="0 0 615.48 133.05" style="enable-background:new 0 0 615.48 133.05;" xml:space="preserve">
<g id="Layer_2_1_">
	<path style="fill:#FFFFFF;" d="M30.32,86.23V55.45c0.08-2.35-0.11-4.7-0.57-7c-0.16-0.44-1-0.84-2.4-1.22
		c-1.05-0.32-2.13-0.51-3.22-0.57c-0.21,0-0.32-0.33-0.32-1c-0.06-0.48,0.06-0.97,0.32-1.38c2.83,0.11,6.07,0.16,9.7,0.16
		c2.76,0,5,0,6.79,0s3.33,0,4.69,0c1.44,0,2.89,0.12,4.31,0.36c1.55,0.28,3.07,0.73,4.52,1.35c1.48,0.61,2.87,1.43,4.11,2.44
		c1.26,1.05,2.26,2.38,2.94,3.87c0.77,1.67,1.16,3.48,1.14,5.32c-0.01,1.98-0.67,3.9-1.88,5.46c-0.94,1.35-2.12,2.52-3.48,3.45
		c-0.85,0.55-1.76,1.02-2.7,1.39c-0.44,0.16-0.58,0.32-0.41,0.48c2.11,0.38,4.64,1.91,7.57,4.6c2.78,2.37,4.39,5.84,4.4,9.49
		c0.14,4.43-2,8.63-5.66,11.13c-3.78,2.75-8.78,4.13-15,4.12h-11.2l-9.86,0.24c-0.22-0.4-0.3-0.85-0.24-1.3
		c0-0.7,0.08-1.06,0.24-1.06c1.07-0.06,2.12-0.25,3.14-0.57c1.39-0.38,2.21-0.81,2.48-1.3C30.13,93.24,30.32,90.68,30.32,86.23z
		 M47.32,67.23c2.08-0.12,4.07-0.93,5.65-2.29c1.5-1.35,2.32-3.31,2.24-5.33c0-3.75-0.94-6.67-2.81-8.76s-4.68-3.14-8.43-3.13
		c-1.94-0.06-3.89,0.13-5.78,0.57c-0.32,0.05-0.49,0.29-0.49,0.73l-0.32,8.22v9.7c0,0.37,1.79,0.57,5.37,0.57
		c1.53,0.01,3.07-0.07,4.59-0.25L47.32,67.23z M58.09,83.55c0.06-3.32-1.2-6.53-3.5-8.92c-2.33-2.47-5.99-3.7-11-3.7
		c-1.2,0-3.15,0.11-5.87,0.32c-0.24,0.88-0.35,1.78-0.32,2.69v11.89c0,4.12,0.43,6.54,1.3,7.24s2.28,1.14,4.4,1.14
		c1.34,0,2.68-0.1,4-0.32c1.62-0.29,3.21-0.72,4.76-1.26c1.8-0.59,3.37-1.73,4.48-3.26C57.55,87.67,58.16,85.63,58.09,83.55z"/>
	<path style="fill:#FFFFFF;" d="M127.05,86.88V72.55l-0.17-0.32c-5.1-0.11-9.1-0.17-12-0.16c-8.36,0-12.54,0.13-12.54,0.4v14.09
		c-0.06,2.54,0.19,5.08,0.73,7.57c0.11,0.38,0.87,0.75,2.28,1.1c0.96,0.28,1.94,0.46,2.94,0.53c0.16,0,0.25,0.33,0.28,1
		c0.05,0.46,0.01,0.93-0.12,1.38c-5.43-0.27-8.58-0.41-9.45-0.4c-0.27,0-3.53,0.13-9.77,0.4c-0.26-0.35-0.37-0.79-0.32-1.22
		c0-0.76,0.1-1.14,0.32-1.14c1.06-0.05,2.11-0.21,3.14-0.49c1.38-0.32,2.15-0.7,2.32-1.14c0.46-2.39,0.65-4.82,0.57-7.25V55.29
		c0.08-2.43-0.11-4.86-0.57-7.25c-0.17-0.43-0.94-0.82-2.32-1.18c-1.02-0.29-2.08-0.47-3.14-0.53c-0.22,0-0.32-0.35-0.32-1
		c-0.06-0.46,0.06-0.93,0.32-1.31l4.32,0.29c2.17,0.13,4,0.2,5.45,0.2c1.09,0,2.15,0,3.18-0.08s2.14-0.12,3.34-0.21l2.93-0.2
		c0.14,0.44,0.18,0.9,0.12,1.35c0,0.67-0.12,1-0.28,1c-1,0.08-1.98,0.27-2.94,0.57c-1.41,0.38-2.17,0.77-2.28,1.14
		c-0.54,2.49-0.79,5.03-0.73,7.58v12.12l0.16,0.24c5.33,0.11,9.46,0.16,12.38,0.16c3.15,0,7.15-0.05,12-0.16
		c0.1-0.08,0.16-0.19,0.17-0.32V55.29c0.08-2.43-0.11-4.86-0.57-7.25c-0.17-0.43-0.94-0.82-2.32-1.18
		c-1.02-0.29-2.08-0.47-3.14-0.53c-0.22,0-0.33-0.34-0.33-1c-0.05-0.47,0.06-0.95,0.33-1.35l4.32,0.29c2.22,0.13,4.07,0.2,5.53,0.2
		c1,0,2.07,0,3.1-0.08s2.13-0.12,3.3-0.21l2.89-0.2c0.12,0.4,0.17,0.81,0.16,1.22c0,0.76-0.11,1.14-0.32,1.14
		c-1,0.08-1.98,0.27-2.94,0.57c-1.41,0.38-2.17,0.77-2.28,1.14c-0.51,2.49-0.73,5.04-0.65,7.58v30.93
		c-0.08,2.54,0.14,5.08,0.65,7.57c0.11,0.38,0.87,0.75,2.28,1.1c0.95,0.29,1.92,0.47,2.91,0.55c0.21,0,0.32,0.41,0.32,1.22
		c0.01,0.39-0.04,0.77-0.16,1.14c-5.43-0.27-8.53-0.41-9.29-0.4c-0.32,0-3.61,0.13-9.85,0.4c-0.27-0.39-0.39-0.87-0.33-1.34
		c0-0.67,0.11-1,0.33-1c1.06-0.05,2.11-0.21,3.14-0.49c1.38-0.32,2.15-0.7,2.32-1.14C126.93,91.77,127.13,89.32,127.05,86.88z"/>
	<path style="fill:#FFFFFF;" d="M173.36,44.46c1.63,0,3.56,0,5.79-0.16s4.12-0.17,5.7-0.17c1.83,0.01,3.66,0.29,5.41,0.82
		c1.87,0.57,3.65,1.39,5.29,2.44c1.78,1.16,3.22,2.76,4.2,4.64c1.94,3.76,2.16,8.17,0.61,12.1c-0.74,1.9-1.75,3.68-3,5.29
		c-1.41,1.79-3.21,3.24-5.26,4.23c-2.28,1.14-4.81,1.71-7.36,1.67c-3.05,0-5.14-0.76-6.27-2.28c-0.36-0.55-0.45-1.24-0.25-1.87
		c0.05-0.22,0.14-0.3,0.25-0.24c1.77,0.61,3.63,0.89,5.5,0.85c2.73-0.01,5.31-1.27,7-3.42c1.95-2.26,3-5.16,2.94-8.14
		c0-3.86-0.85-6.91-2.53-9.17s-4.29-3.37-7.82-3.37c-1.92-0.06-3.83,0.13-5.7,0.57c-0.29,0.08-0.51,0.31-0.57,0.61
		c-0.18,0.83-0.29,1.67-0.32,2.52c-0.08,1.3-0.12,3.26-0.12,5.86v29.08c0,3.63,0.21,6,0.65,7.08c0.27,0.71,1.23,1.27,2.89,1.71
		c1.16,0.36,2.37,0.58,3.58,0.67c0.22,0,0.33,0.38,0.33,1.14c0.01,0.41-0.05,0.83-0.17,1.22c-5.43-0.27-8.95-0.4-10.58-0.4
		l-9.94,0.4c-0.22-0.45-0.31-0.96-0.24-1.46c0-0.71,0.08-1.06,0.24-1.06c1.07-0.04,2.14-0.21,3.18-0.49
		c1.35-0.33,2.17-0.73,2.44-1.22c0.38-0.65,0.57-3.21,0.57-7.66v-30.8c0.08-2.35-0.11-4.7-0.57-7c-0.16-0.44-1-0.84-2.4-1.22
		c-1.05-0.32-2.13-0.51-3.22-0.57c-0.22,0-0.32-0.33-0.32-1c-0.07-0.48,0.05-0.97,0.32-1.38L173.36,44.46z"/>
	<path style="fill:#FFFFFF;" d="M226.03,57.98c-0.09-4,1.69-7.8,4.81-10.3c3.11-2.64,7.07-4.06,11.15-4
		c1.13-0.01,2.26,0.06,3.38,0.2c0.88,0.1,1.75,0.25,2.61,0.45c0.68,0.16,1.65,0.42,2.93,0.77s2.4,0.64,3.38,0.85
		c0.75,3.84,1.08,7.74,1,11.65c0,0.38-0.27,0.57-0.82,0.57c-1.3,0-2-0.27-2.11-0.81c-0.39-2.64-1.6-5.09-3.46-7
		c-1.86-2.17-4.59-3.41-7.45-3.38c-3.26,0-5.56,0.82-6.89,2.45c-1.35,1.7-2.06,3.83-2,6c-0.01,1.03,0.19,2.05,0.57,3
		c0.31,0.81,0.69,1.6,1.13,2.35c0.57,0.83,1.28,1.56,2.08,2.16c1,0.81,1.73,1.38,2.19,1.7c0.46,0.32,1.39,0.93,2.77,1.8
		s2.27,1.41,2.65,1.63l2.85,1.75c1.63,1,2.74,1.7,3.34,2.11c0.6,0.41,1.53,1.14,2.81,2.2c1.04,0.82,1.97,1.76,2.77,2.81
		c0.65,0.96,1.2,1.99,1.63,3.06c0.51,1.2,0.77,2.48,0.77,3.78c0.08,4.17-1.8,8.14-5.09,10.71c-3.35,2.78-7.58,4.27-11.93,4.19
		c-1.39,0-2.77-0.1-4.15-0.28c-1.47-0.19-2.69-0.38-3.67-0.57s-2.21-0.46-3.7-0.82s-2.54-0.58-3.14-0.69c-1.33-6.67-2-11-2-13
		c0-0.32,0.43-0.49,1.3-0.49c0.74-0.07,1.48,0.2,2,0.74c1.84,7.82,6.34,11.73,13.51,11.72c2.53,0.07,4.99-0.8,6.92-2.44
		c1.96-1.75,3-4.3,2.85-6.92c0.01-1.02-0.15-2.03-0.48-3c-0.26-0.79-0.6-1.55-1-2.28c-0.51-0.73-1.15-1.37-1.89-1.87
		c-0.89-0.67-1.58-1.18-2.07-1.5c-0.49-0.32-1.39-0.85-2.69-1.55c-1.3-0.7-2.2-1.19-2.69-1.47l-3.3-2c-0.62-0.38-1.65-1.05-3.09-2
		c-1.14-0.7-2.19-1.53-3.13-2.48c-0.65-0.73-1.42-1.63-2.28-2.69c-0.83-0.99-1.46-2.14-1.84-3.38
		C226.21,60.5,226.03,59.24,226.03,57.98z"/>
	<line style="fill:none;stroke:#FFFFFF;stroke-width:2.37;stroke-miterlimit:10;" x1="281.39" y1="22.29" x2="281.39" y2="122.13"/>
	<path style="fill:#FFFFFF;stroke:#FFFFFF;stroke-width:0.85;stroke-miterlimit:10;" d="M312.1,58.41c0-4.65,0-5.49-0.06-6.44
		s-0.3-1.49-1.28-1.7c-0.29-0.05-0.58-0.08-0.87-0.09c-0.26,0-0.38-0.06-0.38-0.18s0.14-0.24,0.47-0.24c1.34,0,3.22,0.09,3.37,0.09
		c0.72,0,1.88-0.09,3.25-0.09c4.89,0,6,3,6,4.47c0,2.45-1.4,3.91-2.8,5.37c2.21,0.69,5.16,2.8,5.16,6.29c0,3.19-2.51,6.5-7.6,6.5
		c-0.33,0-1.28-0.06-2.15-0.09s-1.7-0.09-1.82-0.09c-0.95,0-1.88,0.09-2.92,0.09c-0.33,0-0.48-0.06-0.48-0.21
		c0-0.15,0.06-0.21,0.45-0.21c0.24,0,0.48-0.03,0.72-0.09c0.59-0.11,0.71-0.8,0.83-1.67c0.15-1.25,0.15-3.6,0.15-6.47L312.1,58.41z
		 M314.49,59.06c0,0.21,0.05,0.27,0.2,0.33c0.6,0.09,1.21,0.13,1.82,0.12c1.67,0,2.09-0.06,2.71-0.77c0.71-0.84,1.09-1.9,1.08-3
		c0-2.48-1.11-5.13-4-5.13c-0.48,0-0.96,0.05-1.43,0.15c-0.27,0.05-0.35,0.15-0.35,0.32L314.49,59.06z M314.49,62.22
		c0,2.3,0,6,0,6.44c0.09,1.46,0.09,1.88,1,2.33c0.84,0.31,1.73,0.46,2.62,0.44c2.21,0.11,4.09-1.58,4.2-3.79
		c0.01-0.15,0.01-0.3,0-0.44c0.09-2.35-0.99-4.6-2.89-6c-0.73-0.49-1.57-0.77-2.45-0.82c-0.39-0.07-1.88-0.07-2.33-0.07
		c-0.12,0-0.17,0.07-0.17,0.21L314.49,62.22z"/>
	<path style="fill:#FFFFFF;stroke:#FFFFFF;stroke-width:0.85;stroke-miterlimit:10;" d="M332.97,65.02c-0.14,0-0.23,0.1-0.29,0.25
		l-1.31,3.72c-0.27,0.68-0.44,1.39-0.51,2.12c0,0.53,0.33,0.77,1,0.77h0.21c0.27,0,0.36,0.09,0.36,0.21c0,0.12-0.24,0.21-0.45,0.21
		c-0.65,0-2-0.09-2.35-0.09s-1.61,0.09-2.86,0.09c-0.33,0-0.48-0.06-0.48-0.21c0-0.15,0.12-0.21,0.36-0.21
		c0.2,0.01,0.39,0.01,0.59,0c1.28-0.12,1.79-1.1,2.3-2.35l6-15.71c0.33-0.87,0.42-1,0.63-1s0.26,0.12,0.59,1s4.47,11.39,6,15.11
		c1,2.36,1.85,2.74,2.27,2.89c0.32,0.11,0.66,0.16,1,0.15c0.21,0,0.36,0.06,0.36,0.21c0,0.15-0.12,0.21-0.45,0.21s-2.53,0-4.53-0.06
		c-0.56,0-0.74-0.06-0.74-0.21c0.02-0.11,0.1-0.19,0.2-0.21c0.13-0.06,0.3-0.21,0.13-0.65l-2.36-6c-0.05-0.09-0.14-0.15-0.24-0.15
		L332.97,65.02z M338.04,64.02c0.12,0,0.12-0.09,0.09-0.18l-2.35-6.59c-0.15-0.41-0.18-0.41-0.33,0l-2.24,6.53
		c-0.06,0.12,0,0.18,0.06,0.18L338.04,64.02z"/>
	<path style="fill:#FFFFFF;stroke:#FFFFFF;stroke-width:0.85;stroke-miterlimit:10;" d="M350.07,60.46c0-4.11,0-4.65-0.06-5.45
		s-0.3-1.25-1.14-1.43c-0.31-0.04-0.61-0.06-0.92-0.06c-0.06,0-0.18-0.06-0.18-0.15s0.15-0.24,0.42-0.24c1.28,0,2.92,0.09,3.1,0.09
		c0.62,0,2.14-0.09,3.37-0.09c3.27,0,4.47,1.07,4.88,1.43c0.88,0.88,1.36,2.09,1.32,3.34c0,3.31-2.75,5.72-6.47,5.72
		c-0.19,0.01-0.38,0.01-0.57,0c-0.12,0-0.27-0.05-0.27-0.17s0.18-0.24,0.75-0.24c2.28,0.11,4.21-1.66,4.32-3.93
		c0-0.1,0.01-0.2,0-0.31c0.07-1.33-0.39-2.62-1.28-3.61c-0.96-1-2.32-1.52-3.7-1.4c-0.34,0-0.68,0.05-1,0.15
		c-0.15,0.07-0.18,0.27-0.18,0.48v10.28c0,2.3,0,4.45,0.12,5.52c0.09,0.72,0.24,1.31,1,1.4c0.39,0.06,0.79,0.1,1.19,0.12
		c0.12,0,0.18,0.06,0.18,0.15c0,0.09-0.12,0.24-0.41,0.24c-1.55,0-3.22-0.09-3.37-0.09s-1.79,0.09-2.63,0.09
		c-0.27,0-0.41-0.06-0.41-0.24c0-0.18,0.06-0.15,0.21-0.15c0.26-0.01,0.52-0.05,0.77-0.12c0.54-0.09,0.69-0.68,0.78-1.4
		c0.14-1.81,0.19-3.63,0.15-5.45L350.07,60.46z"/>
	<path style="fill:#FFFFFF;stroke:#FFFFFF;stroke-width:0.85;stroke-miterlimit:10;" d="M373.18,64.94c0,2.29,0,4.41,0.14,5.51
		c0.09,0.72,0.15,1.13,0.9,1.31c0.38,0.08,0.77,0.12,1.16,0.12c0.24,0,0.36,0.09,0.36,0.18c0,0.09-0.09,0.24-0.39,0.24
		c-1.52,0-3.28-0.09-3.4-0.09s-1.87,0.09-2.65,0.09c-0.33,0-0.45-0.06-0.45-0.21c0-0.15,0.09-0.21,0.33-0.21
		c0.22,0.01,0.44,0.01,0.66,0c0.56-0.09,0.65-0.44,0.77-1.46c0.12-1.02,0.12-3.22,0.12-5.45V54.29c-1,0-2.56,0-3.75,0
		c-1.91,0-2.33,0.33-2.75,1c-0.18,0.29-0.33,0.6-0.45,0.92c-0.08,0.21-0.14,0.24-0.26,0.24s-0.15-0.12-0.15-0.27s0.41-2.14,0.59-3
		c0.09-0.36,0.18-0.47,0.27-0.47s0.78,0.26,1.31,0.32c1.05,0.12,1.88,0.15,1.91,0.15h9.78c0.72,0.01,1.44-0.04,2.15-0.15
		c0.18-0.06,0.37-0.1,0.56-0.12c0.12,0,0.18,0.15,0.18,0.27c0,0.83-0.06,2.8-0.06,3s-0.12,0.36-0.21,0.36s-0.2-0.12-0.2-0.36
		c0.01-0.14,0.01-0.28,0-0.42c-0.12-1.19-0.51-1.49-3.52-1.52c-1.14,0-2.06,0-2.92,0L373.18,64.94z"/>
	<path style="fill:#FFFFFF;stroke:#FFFFFF;stroke-width:0.85;stroke-miterlimit:10;" d="M385.46,60.46c0-3.93,0-4.65-0.05-5.45
		s-0.24-1.25-0.87-1.37c-0.3-0.06-0.51-0.06-0.68-0.09s-0.33-0.09-0.33-0.21s0.12-0.21,0.44-0.21c0.93,0,2.63,0.09,2.72,0.09
		s1.85-0.09,2.68-0.09c0.3,0,0.45,0.06,0.45,0.21s-0.09,0.18-0.33,0.21l-0.54,0.06c-0.86,0.12-1,0.57-1,1.43s0,1.49,0,5.42v4.48
		c-0.05,1.82-0.01,3.64,0.12,5.45c0.12,0.87,0.24,1.19,1,1.37c0.38,0.07,0.76,0.11,1.14,0.12c0.26,0,0.32,0.09,0.32,0.21
		c0,0.12-0.12,0.21-0.41,0.21c-1.52,0-3.25-0.09-3.4-0.09s-1.85,0.09-2.69,0.09c-0.26,0-0.47-0.06-0.47-0.21
		c0-0.15,0.12-0.21,0.38-0.21c0.24-0.01,0.48-0.04,0.72-0.09c0.51-0.11,0.6-0.71,0.69-1.43c0.14-1.07,0.14-3.19,0.14-5.42
		L385.46,60.46z"/>
	<path style="fill:#FFFFFF;stroke:#FFFFFF;stroke-width:0.85;stroke-miterlimit:10;" d="M395.13,71.97c-0.39-0.18-0.39-0.29-0.39-1
		c0-1.37,0.09-2.39,0.12-2.81c0-0.26,0.09-0.41,0.24-0.41s0.21,0.09,0.21,0.3c-0.01,0.3,0.02,0.6,0.09,0.89
		c0.39,1.94,2.14,2.68,3.87,2.68c1.83,0.2,3.48-1.12,3.68-2.96c0.01-0.08,0.01-0.16,0.02-0.24c0-1.7-0.78-2.74-3-4.5L398.78,63
		c-2.87-2.3-3.46-3.88-3.46-5.64c0-2.74,2.18-4.59,5.51-4.59c0.81-0.01,1.63,0.07,2.42,0.24c0.33,0.08,0.66,0.14,1,0.15
		c0.21,0,0.27,0.06,0.27,0.18s-0.12,1.16-0.12,2.89c0,0.45-0.06,0.63-0.21,0.63s-0.18-0.12-0.21-0.33c-0.03-0.49-0.15-0.96-0.36-1.4
		c-0.14-0.27-0.83-1.4-3.33-1.4c-1.56-0.16-2.96,0.97-3.12,2.53c-0.01,0.11-0.02,0.22-0.01,0.33c0,1.4,0.71,2.27,3.19,4.14
		l0.68,0.54c3.1,2.38,3.91,4,3.91,6.08c-0.03,1.69-0.87,3.27-2.27,4.23c-1.21,0.71-2.6,1.05-4,1
		C397.46,72.63,396.26,72.43,395.13,71.97z"/>
	<path style="fill:#FFFFFF;stroke:#FFFFFF;stroke-width:0.85;stroke-miterlimit:10;" d="M417.2,64.94c0,2.29,0,4.41,0.15,5.51
		c0.08,0.72,0.14,1.13,0.89,1.31c0.38,0.08,0.77,0.12,1.16,0.12c0.24,0,0.36,0.09,0.36,0.18c0,0.09-0.09,0.24-0.39,0.24
		c-1.52,0-3.28-0.09-3.4-0.09s-1.87,0.09-2.65,0.09c-0.33,0-0.45-0.06-0.45-0.21c0-0.15,0.09-0.21,0.33-0.21
		c0.22,0.01,0.44,0.01,0.66,0c0.56-0.09,0.65-0.44,0.77-1.46c0.12-1.02,0.12-3.22,0.12-5.45V54.29c-1,0-2.56,0-3.75,0
		c-1.91,0-2.33,0.33-2.75,1c-0.18,0.29-0.33,0.6-0.44,0.92c-0.09,0.21-0.15,0.24-0.27,0.24s-0.15-0.12-0.15-0.27s0.42-2.14,0.59-3
		c0.09-0.36,0.18-0.47,0.27-0.47s0.78,0.26,1.31,0.32c1.05,0.12,1.88,0.15,1.91,0.15h9.78c0.72,0.01,1.44-0.04,2.15-0.15
		c0.18-0.06,0.37-0.1,0.56-0.12c0.12,0,0.18,0.15,0.18,0.27c0,0.83-0.06,2.8-0.06,3s-0.12,0.36-0.21,0.36s-0.2-0.12-0.2-0.36
		c0.01-0.14,0.01-0.28,0-0.42c-0.12-1.19-0.51-1.49-3.52-1.52c-1.13,0-2.06,0-2.92,0L417.2,64.94z"/>
	<path style="fill:#FFFFFF;stroke:#FFFFFF;stroke-width:0.85;stroke-miterlimit:10;" d="M455.34,59.21
		c0.09,0.01,0.17-0.05,0.18-0.14c0-0.01,0-0.03,0-0.04v-0.62c0-4.65,0-5.49-0.07-6.44s-0.29-1.49-1.28-1.7
		c-0.33-0.06-0.66-0.09-1-0.09c-0.12,0-0.24-0.06-0.24-0.18s0.15-0.24,0.48-0.24c1.34,0,3.22,0.09,3.37,0.09s2-0.09,2.92-0.09
		c0.33,0,0.48,0.06,0.48,0.24s-0.12,0.18-0.24,0.18c-0.25,0.01-0.5,0.04-0.75,0.09c-0.8,0.15-1,0.65-1.1,1.7s-0.06,1.79-0.06,6.44
		v5.24c0,2.87,0,5.22,0.15,6.47c0.09,0.87,0.27,1.52,1.16,1.64c0.44,0.06,0.89,0.1,1.34,0.12c0.18,0,0.24,0.09,0.24,0.18
		c0,0.09-0.15,0.24-0.48,0.24c-1.64,0-3.51-0.09-3.66-0.09s-2,0.09-2.92,0.09c-0.33,0-0.48-0.06-0.48-0.24
		c0-0.18,0.06-0.18,0.24-0.18c0.3-0.01,0.6-0.05,0.89-0.12c0.6-0.12,0.75-0.77,0.87-1.64c0.15-1.25,0.15-3.6,0.15-6.47v-3.13
		c0-0.1-0.08-0.18-0.18-0.18H442.7c-0.09-0.01-0.17,0.05-0.18,0.14c0,0.01,0,0.03,0,0.04v3.13c0,2.87,0,5.22,0.15,6.47
		c0.09,0.87,0.26,1.52,1.16,1.64c0.44,0.06,0.89,0.1,1.34,0.12c0.18,0,0.24,0.09,0.24,0.18c0,0.09-0.15,0.24-0.48,0.24
		c-1.64,0-3.52-0.09-3.66-0.09s-2,0.09-2.93,0.09c-0.32,0-0.47-0.06-0.47-0.24c0-0.18,0.06-0.18,0.23-0.18
		c0.29-0.01,0.58-0.04,0.87-0.1c0.59-0.12,0.74-0.77,0.86-1.64c0.15-1.25,0.15-3.6,0.15-6.47v-5.26c0-4.65,0-5.49-0.06-6.44
		s-0.3-1.49-1.28-1.7c-0.33-0.06-0.66-0.09-1-0.09c-0.12,0-0.24-0.06-0.24-0.18s0.15-0.24,0.48-0.24c1.34,0,3.22,0.09,3.37,0.09
		s2-0.09,2.92-0.09c0.32,0,0.47,0.06,0.47,0.24s-0.12,0.18-0.24,0.18c-0.25,0.01-0.5,0.04-0.74,0.09c-0.81,0.15-1,0.65-1.1,1.7
		s-0.06,1.79-0.06,6.44v0.62c-0.01,0.09,0.05,0.17,0.14,0.18c0.01,0,0.03,0,0.04,0H455.34z"/>
	<path style="fill:#FFFFFF;stroke:#FFFFFF;stroke-width:0.85;stroke-miterlimit:10;" d="M467.72,60.46c0-3.93,0-4.65-0.06-5.45
		s-0.24-1.25-0.87-1.37c-0.29-0.06-0.5-0.06-0.68-0.09s-0.33-0.09-0.33-0.21s0.12-0.21,0.45-0.21c0.92,0,2.62,0.09,2.71,0.09
		s1.85-0.09,2.68-0.09c0.3,0,0.45,0.06,0.45,0.21s-0.09,0.18-0.33,0.21l-0.53,0.06c-0.87,0.12-1,0.57-1,1.43s0,1.49,0,5.42v4.48
		c-0.05,1.82-0.01,3.64,0.12,5.45c0.12,0.87,0.24,1.19,1,1.37c0.37,0.07,0.75,0.11,1.13,0.12c0.27,0,0.33,0.09,0.33,0.21
		c0,0.12-0.12,0.21-0.42,0.21c-1.52,0-3.25-0.09-3.4-0.09s-1.85,0.09-2.68,0.09c-0.27,0-0.48-0.06-0.48-0.21
		c0-0.15,0.12-0.21,0.39-0.21c0.24-0.01,0.48-0.04,0.71-0.09c0.51-0.11,0.6-0.71,0.69-1.43c0.14-1.8,0.19-3.61,0.15-5.42
		L467.72,60.46z"/>
	<path style="fill:#FFFFFF;stroke:#FFFFFF;stroke-width:0.85;stroke-miterlimit:10;" d="M477.38,71.97c-0.38-0.18-0.38-0.29-0.38-1
		c0-1.37,0.08-2.39,0.11-2.81c0-0.26,0.09-0.41,0.24-0.41s0.21,0.09,0.21,0.3c-0.01,0.3,0.02,0.6,0.09,0.89
		c0.39,1.94,2.15,2.68,3.88,2.68c1.83,0.18,3.46-1.15,3.65-2.98c0.01-0.07,0.01-0.14,0.01-0.21c0-1.7-0.77-2.74-3-4.5L481,63.01
		c-2.86-2.3-3.46-3.88-3.46-5.64c0-2.74,2.18-4.59,5.52-4.59c0.81-0.01,1.62,0.07,2.41,0.24c0.33,0.08,0.66,0.13,1,0.15
		c0.2,0,0.26,0.06,0.26,0.18s-0.12,1.16-0.12,2.89c0,0.45-0.06,0.63-0.2,0.63s-0.18-0.12-0.21-0.33c-0.03-0.48-0.15-0.96-0.36-1.4
		c-0.15-0.27-0.84-1.4-3.34-1.4c-1.56-0.16-2.96,0.97-3.12,2.53c-0.01,0.11-0.02,0.22-0.01,0.33c0,1.4,0.71,2.27,3.19,4.14
		l0.69,0.54c3.09,2.38,3.9,4,3.9,6.08c-0.01,1.67-0.82,3.24-2.18,4.22c-1.21,0.71-2.6,1.05-4,1
		C479.75,72.64,478.52,72.43,477.38,71.97z"/>
	<path style="fill:#FFFFFF;stroke:#FFFFFF;stroke-width:0.85;stroke-miterlimit:10;" d="M499.45,64.94c0,2.29,0,4.41,0.15,5.51
		c0.09,0.72,0.15,1.13,0.89,1.31c0.39,0.08,0.78,0.12,1.17,0.12c0.23,0,0.35,0.09,0.35,0.18c0,0.09-0.09,0.24-0.39,0.24
		c-1.51,0-3.27-0.09-3.39-0.09s-1.88,0.09-2.66,0.09c-0.32,0-0.44-0.06-0.44-0.21c0-0.15,0.09-0.21,0.32-0.21
		c0.22,0.01,0.44,0.01,0.66,0c0.57-0.09,0.66-0.44,0.78-1.46c0.12-1.02,0.11-3.22,0.11-5.45V54.29c-1,0-2.56,0-3.75,0
		c-1.91,0-2.33,0.33-2.74,1c-0.18,0.29-0.33,0.6-0.45,0.92c-0.09,0.21-0.15,0.24-0.27,0.24s-0.15-0.12-0.15-0.27s0.42-2.14,0.6-3
		c0.09-0.36,0.18-0.47,0.27-0.47s0.77,0.26,1.31,0.32c1,0.12,1.88,0.15,1.9,0.15h9.78c0.72,0.01,1.44-0.04,2.15-0.15
		c0.19-0.06,0.38-0.1,0.57-0.12c0.12,0,0.17,0.15,0.17,0.27c0,0.83,0,2.8,0,3s-0.12,0.36-0.21,0.36s-0.21-0.12-0.21-0.36
		c0.01-0.14,0.01-0.28,0-0.42c-0.12-1.19-0.51-1.49-3.52-1.52c-1.13,0-2.06,0-2.92,0L499.45,64.94z"/>
	<path style="fill:#FFFFFF;stroke:#FFFFFF;stroke-width:0.85;stroke-miterlimit:10;" d="M508.43,62.67
		c0.09-5.56,4.67-9.99,10.22-9.9c0.07,0,0.14,0,0.21,0.01c5.91,0,10.41,3.52,10.41,9.52c0.11,5.6-4.35,10.24-9.95,10.35
		c-0.2,0-0.4,0-0.6-0.01C511.41,72.63,508.43,67.2,508.43,62.67z M526.43,63.03c0-6-3.7-9.33-7.79-9.33s-7.48,2.56-7.48,8.19
		c0,5.85,3.25,9.72,8.26,9.72c2.04,0,7.05-1.01,7.05-8.58H526.43z"/>
	<path style="fill:#FFFFFF;stroke:#FFFFFF;stroke-width:0.85;stroke-miterlimit:10;" d="M535.3,60.46c0-3.93,0-4.65-0.06-5.45
		s-0.27-1.23-1.19-1.43c-0.24-0.04-0.48-0.06-0.72-0.06c-0.21,0-0.33-0.06-0.33-0.18s0.09-0.21,0.36-0.21c1.28,0,3.1,0.09,3.16,0.09
		c0.27,0,2.3-0.09,3.13-0.09c1.71-0.13,3.41,0.27,4.89,1.13c1.14,0.86,1.8,2.21,1.79,3.64c0,1.64-0.8,3.73-3.16,5.64
		c2.18,2.68,4,4.88,5.49,6.46c0.79,0.97,1.92,1.6,3.16,1.78c0.2,0,0.83,0.06,0.92,0.06s0.33,0.09,0.33,0.21
		c0,0.12-0.12,0.21-0.54,0.21h-2.09c-0.92,0.07-1.84-0.05-2.71-0.36c-1.25-0.53-2.15-1.88-3.7-3.87c-1.16-1.43-2.35-3-2.86-3.67
		c-0.08-0.12-0.22-0.18-0.36-0.18h-3.06c-0.13,0-0.15,0-0.15,0.15v0.45c-0.05,1.88,0,3.76,0.15,5.63c0.08,0.72,0.17,1.31,1.16,1.43
		c0.3,0,0.62,0.06,0.86,0.06s0.39,0.09,0.39,0.18c0,0.09-0.12,0.24-0.42,0.24c-1.55,0-3.22-0.09-3.34-0.09
		c-0.47,0-1.79,0.09-2.59,0.09c-0.3,0-0.42-0.06-0.42-0.24c0-0.18,0.18-0.18,0.36-0.18c0.22,0.01,0.44-0.01,0.66-0.06
		c0.5-0.09,0.68-0.41,0.77-1.13c0.15-1.07,0.12-3.52,0.12-5.75L535.3,60.46z M537.6,62.58c0,0.15,0,0.3,0.15,0.36
		c0.85,0.29,1.75,0.42,2.65,0.39c0.7,0.06,1.39-0.1,2-0.45c0.9-0.57,1.5-1.88,1.5-3.79c0-3.25-1.73-5-4.39-5
		c-0.58-0.01-1.16,0.04-1.73,0.15c-0.11,0.04-0.18,0.15-0.17,0.27L537.6,62.58z"/>
	<path style="fill:#FFFFFF;stroke:#FFFFFF;stroke-width:0.85;stroke-miterlimit:10;" d="M557.55,65.78
		c0.08-0.96-0.15-1.92-0.66-2.74c-0.18-0.33-3.64-6-4.56-7.25c-0.41-0.68-0.92-1.29-1.52-1.81c-0.41-0.3-0.9-0.45-1.4-0.45
		c-0.18,0-0.33-0.09-0.33-0.24s0.12-0.18,0.36-0.18c0.48,0,2.74,0.09,2.8,0.09s1.16-0.09,2.27-0.09c0.29,0,0.38,0.09,0.38,0.18
		s-0.09,0.18-0.32,0.24c-0.42,0.09-0.48,0.24-0.48,0.48c0.05,0.36,0.18,0.7,0.39,1c0.38,0.74,4.32,7.06,4.77,7.81
		c0.47-1,3.81-6.5,4.23-7.24c0.57-1,0.69-1.26,0.69-1.58s-0.36-0.39-0.69-0.45s-0.33-0.12-0.33-0.24s0.06-0.18,0.36-0.18
		c0.72,0,1.34,0.09,1.82,0.09s2.12-0.09,2.62-0.09c0.27,0,0.36,0.09,0.36,0.18s-0.15,0.24-0.36,0.24c-0.52-0.02-1.04,0.11-1.49,0.38
		c-0.45,0.33-0.82,0.75-1.1,1.23c-1.86,2.65-3.55,5.42-5.07,8.28c-0.27,0.75-0.38,1.55-0.32,2.34v2.2c0,0.21,0,1.31,0.06,2.38
		c0.06,0.72,0.12,1.22,1,1.4c0.36,0.08,0.73,0.12,1.1,0.12c0.24,0,0.33,0.09,0.33,0.18c0,0.09-0.09,0.24-0.36,0.24
		c-1.49,0-3.34-0.09-3.43-0.09s-1.85,0.09-2.68,0.09c-0.3,0-0.42-0.09-0.42-0.24c0-0.15,0.09-0.18,0.3-0.18
		c0.25,0,0.5-0.03,0.74-0.09c0.51-0.09,0.72-0.71,0.78-1.43c0.09-1.07,0.09-2.14,0.09-2.38L557.55,65.78z"/>
	<path style="fill:#FFFFFF;stroke:#FFFFFF;stroke-width:0.85;stroke-miterlimit:10;" d="M310.97,89.67c0-3.7,0-4.36-0.05-5.12
		c-0.05-0.76-0.24-1.18-1-1.34c-0.26-0.05-0.53-0.08-0.8-0.08c-0.1,0-0.19,0-0.19-0.14s0.12-0.19,0.38-0.19
		c1.06,0,2.48,0.07,2.67,0.07c0.52,0,1.89-0.07,3-0.07c3,0,4,1,4.41,1.35c0.79,0.84,1.21,1.95,1.18,3.1c0,3.08-2.46,5.35-5.82,5.35
		c-0.17,0.01-0.33,0.01-0.5,0c-0.12,0-0.26,0-0.26-0.17s0.14-0.21,0.64-0.21c2.15,0.11,3.98-1.54,4.1-3.69c0.01-0.1,0.01-0.2,0-0.31
		c0.02-1.28-0.45-2.52-1.33-3.46c-0.86-0.85-2.05-1.28-3.25-1.18c-0.34-0.01-0.68,0.04-1,0.15c-0.15,0-0.19,0.21-0.19,0.44v9.74
		c0,2.26,0,4.14,0.12,5.13c0.07,0.69,0.21,1.21,0.92,1.3c0.35,0.05,0.71,0.09,1.06,0.1c0.15,0,0.19,0.07,0.19,0.14
		c0,0.07-0.11,0.19-0.37,0.19c-1.31,0-2.8-0.07-2.92-0.07s-1.56,0.07-2.27,0.07c-0.26,0-0.38,0-0.38-0.19s0.05-0.14,0.19-0.14
		c0.24-0.01,0.48-0.04,0.71-0.1c0.48-0.09,0.59-0.61,0.69-1.3c0.12-1,0.12-2.87,0.12-5.13L310.97,89.67z"/>
	<path style="fill:#FFFFFF;stroke:#FFFFFF;stroke-width:0.85;stroke-miterlimit:10;" d="M325.03,91.3c0-3.12,0-3.69-0.05-4.33
		s-0.21-1-0.95-1.14c-0.19-0.01-0.38-0.01-0.57,0c-0.16,0-0.26,0-0.26-0.14s0.07-0.16,0.29-0.16c1,0,2.46,0.07,2.51,0.07
		c0.21,0,1.82-0.07,2.48-0.07c1.36-0.1,2.71,0.21,3.89,0.9c0.9,0.69,1.43,1.76,1.42,2.89c-0.11,1.79-1.04,3.43-2.51,4.46
		c1.73,2.13,3.15,3.88,4.35,5.14c0.63,0.78,1.52,1.29,2.51,1.44h0.74c0.19,0,0.26,0.07,0.26,0.16c0,0.09-0.1,0.17-0.43,0.17h-1.66
		c-0.73,0.05-1.46-0.04-2.15-0.28c-1-0.43-1.71-1.5-2.94-3.08c-0.92-1.14-1.87-2.42-2.27-2.91c-0.06-0.1-0.17-0.15-0.28-0.15h-2.44
		c-0.1,0-0.12,0-0.12,0.12v0.33c-0.04,1.49,0,2.98,0.12,4.46c0.07,0.57,0.14,1,0.92,1.14c0.24,0,0.5,0,0.69,0s0.31,0.07,0.31,0.14
		c0,0.07-0.1,0.19-0.34,0.19c-1.23,0-2.55-0.07-2.65-0.07c-0.38,0-1.42,0.07-2.06,0.07c-0.23,0-0.33,0-0.33-0.19
		s0.14-0.14,0.29-0.14c0.17,0.02,0.35,0.02,0.52,0c0.4-0.07,0.54-0.33,0.61-0.9c0.12-0.85,0.1-2.79,0.1-4.57L325.03,91.3z
		 M326.85,92.98c0,0.12,0,0.24,0.12,0.29c0.68,0.22,1.39,0.32,2.11,0.3c0.55,0.04,1.1-0.08,1.58-0.35c0.87-0.74,1.31-1.87,1.18-3
		c0-2.58-1.37-4-3.48-4c-0.46-0.01-0.92,0.03-1.37,0.12c-0.09,0.03-0.15,0.12-0.14,0.21L326.85,92.98z"/>
	<path style="fill:#FFFFFF;stroke:#FFFFFF;stroke-width:0.85;stroke-miterlimit:10;" d="M340.37,91.3c0-3.1,0-3.67,0-4.31
		s-0.22-1-0.9-1.14c-0.19-0.01-0.38-0.01-0.57,0c-0.17,0-0.31-0.07-0.31-0.14c0-0.07,0.12-0.19,0.35-0.19c0.48,0,1.12,0,2.44,0.07
		c0.12,0,4.34,0,4.81,0c0.31,0,0.62-0.04,0.92-0.12c0.14,0,0.17-0.08,0.26-0.08s0.1,0,0.1,0.17s-0.14,0.47-0.19,1.06
		c0,0.41,0,0.79-0.07,1.24c0,0.21-0.05,0.35-0.17,0.35s-0.16-0.09-0.16-0.26c-0.02-0.26-0.07-0.52-0.17-0.76
		c-0.14-0.47-0.35-0.64-1.54-0.71c-0.31,0-2.65,0-2.7,0s-0.12,0-0.12,0.18v5.38c0,0.14,0,0.24,0.15,0.24c0.28,0,2.69,0,3.19-0.07
		c0.5-0.07,0.9-0.1,1.09-0.36c0.19-0.26,0.17-0.19,0.26-0.19s0.1,0,0.1,0.14s-0.1,0.57-0.17,1.26s-0.07,1.13-0.09,1.44
		c-0.02,0.31-0.08,0.26-0.17,0.26s-0.14-0.14-0.14-0.31c0-0.19-0.03-0.38-0.07-0.56c-0.1-0.31-0.24-0.64-1.14-0.72
		c-0.54,0-2.46-0.09-2.84-0.09c-0.14,0-0.17,0.07-0.17,0.17v1.72c0,0.74,0,2.82,0,3.23c0.05,0.87,0.17,1.32,0.67,1.53
		c0.56,0.19,1.14,0.26,1.73,0.22c0.6,0.03,1.21-0.02,1.8-0.15c0.7-0.21,0.87-0.68,1.06-1.56c0-0.24,0.12-0.33,0.21-0.33
		s0.14,0.22,0.14,0.36s-0.18,1.66-0.26,2s-0.26,0.53-1,0.53c-1.56,0-2.22,0-3,0s-1.92-0.07-2.8-0.07c-0.54,0-1,0.07-1.56,0.07
		c-0.21,0-0.33,0-0.33-0.17s0.09-0.16,0.21-0.16c0.16-0.01,0.32-0.03,0.48-0.07c0.42-0.1,0.71-0.4,0.76-1.87c0-0.81,0-1.78,0-3.58
		L340.37,91.3z"/>
	<path style="fill:#FFFFFF;stroke:#FFFFFF;stroke-width:0.85;stroke-miterlimit:10;" d="M351.79,100.44
		c-0.31-0.14-0.31-0.24-0.31-0.81c0-1.09,0.07-1.89,0.09-2.22s0.08-0.33,0.2-0.33s0.16,0.07,0.16,0.23
		c-0.01,0.24,0.02,0.48,0.07,0.72c0.35,1.38,1.67,2.28,3.08,2.12c1.46,0.13,2.75-0.94,2.88-2.4c0-0.04,0.01-0.09,0.01-0.13
		c0-1.35-0.61-2.18-2.34-3.57l-0.95-0.74c-2.27-1.82-2.75-3.07-2.75-4.47c0-2.18,1.73-3.65,4.38-3.65c0.65-0.01,1.29,0.05,1.92,0.19
		c0.26,0.07,0.54,0.11,0.81,0.12c0.16,0,0.21,0,0.21,0.14s-0.1,0.92-0.1,2.3c0,0.35,0,0.5-0.16,0.5s-0.14-0.1-0.17-0.26
		c-0.02-0.39-0.12-0.77-0.28-1.12c-0.12-0.21-0.66-1.11-2.65-1.11c-1.24-0.13-2.35,0.78-2.48,2.02c-0.01,0.08-0.01,0.17-0.01,0.25
		c0,1.12,0.57,1.8,2.54,3.3l0.54,0.42c2.46,1.9,3.1,3.15,3.1,4.83c-0.02,1.35-0.69,2.6-1.8,3.36c-0.97,0.57-2.08,0.86-3.2,0.83
		C353.63,100.99,352.68,100.81,351.79,100.44z"/>
	<path style="fill:#FFFFFF;stroke:#FFFFFF;stroke-width:0.85;stroke-miterlimit:10;" d="M364.44,91.3c0-3.1,0-3.67-0.05-4.31
		s-0.22-1-0.9-1.14c-0.19-0.01-0.38-0.01-0.57,0c-0.17,0-0.31-0.07-0.31-0.14c0-0.07,0.12-0.19,0.36-0.19c0.47,0,1.11,0,2.44,0.07
		c0.11,0,4.33,0,4.8,0c0.31,0,0.62-0.04,0.92-0.12c0.15,0,0.17-0.08,0.26-0.08s0.1,0,0.1,0.17s-0.14,0.47-0.19,1.06
		c0,0.41-0.05,0.79-0.07,1.24c0,0.21-0.05,0.35-0.17,0.35s-0.16-0.09-0.16-0.26c-0.02-0.26-0.07-0.52-0.17-0.76
		c-0.14-0.47-0.35-0.64-1.54-0.71c-0.3,0-2.65,0-2.69,0s-0.12,0-0.12,0.18v5.38c0,0.14,0,0.24,0.14,0.24c0.28,0,2.7,0,3.19-0.07
		c0.49-0.07,0.9-0.1,1.09-0.36c0.19-0.26,0.17-0.19,0.26-0.19s0.1,0,0.1,0.14s-0.1,0.57-0.17,1.26s-0.07,1.13-0.09,1.44
		c-0.02,0.31-0.07,0.26-0.17,0.26s-0.14-0.14-0.14-0.31c0-0.19-0.03-0.38-0.07-0.56c-0.1-0.31-0.24-0.64-1.14-0.72
		c-0.54,0-2.46-0.09-2.84-0.09c-0.14,0-0.16,0.07-0.16,0.17v1.72c0,0.74,0,2.82,0,3.23c0,0.87,0.16,1.32,0.66,1.53
		c0.56,0.19,1.14,0.26,1.73,0.22c0.6,0.03,1.21-0.02,1.8-0.15c0.71-0.21,0.87-0.68,1.06-1.56c0-0.24,0.12-0.33,0.21-0.33
		s0.15,0.22,0.15,0.36s-0.19,1.66-0.26,2s-0.26,0.53-1,0.53c-1.57,0-2.23,0-3.06,0s-1.92-0.07-2.79-0.07c-0.55,0-1,0.07-1.57,0.07
		c-0.21,0-0.33,0-0.33-0.17s0.1-0.16,0.22-0.16c0.16-0.01,0.32-0.03,0.47-0.07c0.43-0.1,0.71-0.4,0.76-1.87
		c0-0.81,0.05-1.78,0.05-3.58L364.44,91.3z"/>
	<path style="fill:#FFFFFF;stroke:#FFFFFF;stroke-width:0.85;stroke-miterlimit:10;" d="M376.8,91.3c0-3.12,0-3.69-0.05-4.33
		s-0.21-1-0.95-1.14c-0.19-0.01-0.38-0.01-0.57,0c-0.16,0-0.25,0-0.25-0.14s0.07-0.16,0.28-0.16c1,0,2.46,0.07,2.51,0.07
		c0.21,0,1.82-0.07,2.48-0.07c1.36-0.1,2.71,0.21,3.89,0.9c0.9,0.68,1.43,1.76,1.42,2.89c-0.11,1.79-1.04,3.43-2.51,4.46
		c1.73,2.13,3.15,3.88,4.35,5.14c0.63,0.78,1.52,1.29,2.51,1.44h0.74c0.19,0,0.26,0.07,0.26,0.16c0,0.09-0.1,0.17-0.43,0.17h-1.66
		c-0.73,0.05-1.46-0.04-2.15-0.28c-1-0.43-1.7-1.5-2.94-3.08c-0.92-1.14-1.87-2.42-2.27-2.91c-0.06-0.1-0.17-0.15-0.28-0.15h-2.44
		c-0.1,0-0.12,0-0.12,0.12v0.33c-0.04,1.49,0,2.98,0.12,4.47c0.07,0.57,0.14,1,0.92,1.14c0.24,0,0.5,0,0.69,0s0.31,0.07,0.31,0.14
		c0,0.07-0.1,0.19-0.34,0.19c-1.23,0-2.55-0.07-2.65-0.07c-0.38,0-1.42,0.07-2.06,0.07c-0.23,0-0.33,0-0.33-0.19
		s0.14-0.14,0.29-0.14c0.17,0.02,0.35,0.02,0.52,0c0.4-0.07,0.54-0.33,0.61-0.9c0.12-0.85,0.1-2.79,0.1-4.57L376.8,91.3z
		 M378.62,92.98c0,0.12,0,0.24,0.12,0.29c0.68,0.22,1.39,0.32,2.11,0.3c0.55,0.04,1.1-0.08,1.58-0.35c0.87-0.74,1.31-1.87,1.18-3
		c0-2.58-1.37-4-3.47-4c-0.46-0.01-0.93,0.03-1.38,0.12c-0.09,0.03-0.15,0.12-0.14,0.21L378.62,92.98z"/>
	<path style="fill:#FFFFFF;stroke:#FFFFFF;stroke-width:0.85;stroke-miterlimit:10;" d="M389.97,87.42
		c-0.48-1.11-0.64-1.4-1.49-1.54c-0.24-0.04-0.47-0.06-0.71-0.07c-0.19,0-0.29-0.07-0.29-0.17c0-0.1,0.17-0.16,0.38-0.16
		c1.09,0,2.46,0.07,2.7,0.07s1.33-0.07,2.2-0.07c0.28,0,0.38,0,0.38,0.14s-0.1,0.19-0.36,0.19c-0.25-0.01-0.5,0.03-0.73,0.11
		c-0.15,0.08-0.23,0.24-0.21,0.41c0.07,0.41,0.2,0.81,0.38,1.18l4.16,10.47c1.19-2.63,3.91-9.49,4.34-10.92
		c0.1-0.25,0.16-0.51,0.19-0.78c0.02-0.16-0.07-0.32-0.22-0.38c-0.25-0.07-0.5-0.1-0.76-0.09c-0.16,0-0.3,0-0.3-0.14
		s0.07-0.19,0.35-0.19c0.85,0,2,0.07,2.25,0.07c0.09,0,1-0.07,1.63-0.07c0.24,0,0.36,0,0.36,0.14s-0.1,0.19-0.26,0.19
		c-0.35-0.02-0.7,0.07-1,0.24c-0.26,0.19-0.54,0.47-1.11,1.84c-0.12,0.29-1.31,3-2.37,5.45c-1.25,2.93-2.23,5.16-2.63,6
		c-0.64,1.31-0.71,1.66-0.94,1.66s-0.41-0.28-0.81-1.33L389.97,87.42z"/>
	<path style="fill:#FFFFFF;stroke:#FFFFFF;stroke-width:0.85;stroke-miterlimit:10;" d="M407.13,94.92c-0.11,0-0.21,0.08-0.23,0.19
		l-1,3c-0.22,0.54-0.36,1.1-0.41,1.68c0,0.43,0.26,0.62,0.78,0.62h0.17c0.21,0,0.28,0.07,0.28,0.16c0,0.09-0.19,0.17-0.35,0.17
		c-0.52,0-1.61-0.07-1.87-0.07s-1.28,0.07-2.27,0.07c-0.26,0-0.38,0-0.38-0.17s0.09-0.16,0.28-0.16c0.16,0.01,0.31,0.01,0.47,0
		c1-0.09,1.43-0.87,1.83-1.87l4.73-12.47c0.26-0.69,0.33-0.81,0.5-0.81s0.21,0.1,0.47,0.76s3.55,9,4.81,12
		c0.78,1.88,1.47,2.18,1.8,2.3c0.26,0.09,0.53,0.13,0.8,0.12c0.17,0,0.29,0,0.29,0.16s-0.1,0.17-0.36,0.17s-2,0-3.6,0
		c-0.45,0-0.59,0-0.59-0.16c0.01-0.09,0.08-0.16,0.17-0.17c0.09-0.05,0.23-0.17,0.09-0.52l-1.87-4.76
		c-0.03-0.07-0.11-0.12-0.19-0.12L407.13,94.92z M411.13,94.09c0.09,0,0.09-0.07,0.07-0.14l-1.87-5.23c-0.12-0.33-0.14-0.33-0.26,0
		l-1.78,5.23c0,0.1,0,0.14,0,0.14H411.13z"/>
	<path style="fill:#FFFFFF;stroke:#FFFFFF;stroke-width:0.85;stroke-miterlimit:10;" d="M423.66,94.85c0,1.82,0,3.51,0.12,4.38
		c0.07,0.57,0.12,0.9,0.71,1c0.31,0.06,0.62,0.1,0.93,0.1c0.18,0,0.28,0.07,0.28,0.14c0,0.07-0.07,0.19-0.31,0.19
		c-1.21,0-2.6-0.07-2.7-0.07s-1.49,0.07-2.1,0.07c-0.26,0-0.36,0-0.36-0.17s0.07-0.16,0.26-0.16c0.17,0.02,0.35,0.02,0.52,0
		c0.45-0.07,0.52-0.35,0.62-1.16c0.1-0.81,0.09-2.55,0.09-4.33V86.4c-0.78,0-2,0-3,0c-1.52,0-1.85,0.27-2.18,0.76
		c-0.15,0.23-0.26,0.48-0.35,0.74c-0.08,0.16-0.12,0.18-0.22,0.18s-0.12-0.09-0.12-0.21c0-0.12,0.34-1.7,0.48-2.34
		c0.07-0.29,0.14-0.38,0.21-0.38s0.62,0.21,1,0.26c0.83,0.1,1.49,0.12,1.52,0.12h7.76c0.57,0.01,1.14-0.03,1.71-0.12
		c0.15-0.04,0.3-0.08,0.45-0.1c0.09,0,0.14,0.13,0.14,0.22c0,0.66,0,2.22,0,2.41s-0.09,0.29-0.16,0.29s-0.17-0.1-0.17-0.29
		c0.01-0.11,0.01-0.22,0-0.33c-0.1-0.94-0.41-1.18-2.8-1.21h-2.32L423.66,94.85z"/>
	<path style="fill:#FFFFFF;stroke:#FFFFFF;stroke-width:0.85;stroke-miterlimit:10;" d="M433.42,91.3c0-3.12,0-3.69-0.05-4.33
		s-0.19-1-0.68-1.09c-0.24,0-0.41,0-0.55-0.07c-0.14-0.07-0.26-0.07-0.26-0.17c0-0.1,0.1-0.16,0.36-0.16c0.73,0,2.08,0.07,2.15,0.07
		s1.47-0.07,2.13-0.07c0.24,0,0.36,0,0.36,0.16s-0.07,0.14-0.26,0.17h-0.43c-0.69,0.1-0.76,0.46-0.8,1.14c-0.04,0.68,0,1.19,0,4.31
		v3.55c-0.04,1.44-0.01,2.89,0.1,4.33c0.09,0.69,0.19,0.95,0.8,1.09c0.3,0.06,0.6,0.09,0.9,0.1c0.21,0,0.26,0.07,0.26,0.16
		c0,0.09-0.09,0.17-0.33,0.17c-1.21,0-2.58-0.07-2.7-0.07s-1.47,0.07-2.13,0.07c-0.21,0-0.38,0-0.38-0.17s0.1-0.16,0.31-0.16
		c0.19-0.01,0.38-0.03,0.57-0.07c0.4-0.1,0.47-0.57,0.54-1.14c0.11-1.43,0.15-2.87,0.12-4.31L433.42,91.3z"/>
	<path style="fill:#FFFFFF;stroke:#FFFFFF;stroke-width:0.85;stroke-miterlimit:10;" d="M440.1,93.05c0.07-4.42,3.72-7.94,8.13-7.86
		c0.05,0,0.1,0,0.16,0c4.69,0,8.26,2.8,8.26,7.56c0.09,4.44-3.44,8.12-7.88,8.22c-0.17,0-0.33,0-0.5-0.01
		c-4.24,0.26-7.9-2.97-8.16-7.21C440.1,93.52,440.1,93.28,440.1,93.05z M454.43,93.34c0-4.76-2.94-7.42-6.18-7.42s-5.95,2-5.95,6.52
		c0,4.64,2.58,7.71,6.56,7.71C450.45,100.15,454.43,99.35,454.43,93.34z"/>
	<path style="fill:#FFFFFF;stroke:#FFFFFF;stroke-width:0.85;stroke-miterlimit:10;" d="M460.97,86.16c0-0.73,0.08-1,0.26-1
		s0.57,0.48,0.74,0.64c0.17,0.16,3.5,3.6,6.82,7c1.84,1.8,4.21,4.23,4.83,4.8l-0.22-9.82c0-1.28-0.17-1.7-0.81-1.87
		c-0.3-0.05-0.61-0.08-0.92-0.09c-0.24,0-0.29-0.1-0.29-0.19c0-0.09,0.19-0.14,0.43-0.14c1,0,2,0.07,2.23,0.07s1-0.07,1.89-0.07
		c0.26,0,0.33,0,0.33,0.14s-0.07,0.16-0.21,0.19s-0.33,0-0.59,0.07c-0.55,0.12-0.71,0.36-0.71,1.77v11.89c0,1.18-0.05,1.3-0.22,1.3
		s-0.4-0.16-1.56-1.25c-0.09,0-3.38-3.32-5.44-5.33l-5.42-5.63l0.3,9.25c0.05,1.64,0.19,2.25,0.78,2.39c0.33,0.08,0.66,0.11,1,0.1
		c0.18,0,0.28,0.07,0.28,0.16c0,0.09-0.12,0.17-0.38,0.17c-1.28,0-2.13-0.07-2.29-0.07s-1.05,0.07-2.06,0.07
		c-0.22,0-0.36,0-0.36-0.17s0.09-0.16,0.33-0.16c0.25,0.01,0.49-0.03,0.73-0.1c0.53-0.16,0.64-0.8,0.64-2.53
		C460.97,86.45,461.04,90.09,460.97,86.16z"/>
	<path style="fill:#FFFFFF;stroke:#FFFFFF;stroke-width:0.85;stroke-miterlimit:10;" d="M488.25,100.39
		c-0.33-0.17-0.36-0.26-0.36-0.9c0-1.18,0.1-2.13,0.12-2.51s0.07-0.38,0.19-0.38s0.17,0.07,0.17,0.27
		c-0.01,0.29,0.02,0.58,0.07,0.87c0.35,1.75,1.92,2.41,3.5,2.41c1.74,0.13,3.25-1.18,3.38-2.92c0.01-0.07,0.01-0.15,0.01-0.22
		c0-1.64-0.69-2.58-2.73-4.26l-1.06-0.88c-2.51-2.06-3.08-3.53-3.08-5.14c0-2.53,1.9-4.26,4.9-4.26c0.74-0.01,1.48,0.07,2.2,0.24
		c0.27,0.07,0.55,0.1,0.83,0.11c0.19,0,0.24,0,0.24,0.17s-0.1,0.9-0.1,2.51c0,0.38,0,0.55-0.16,0.55s-0.17-0.13-0.19-0.31
		c-0.04-0.41-0.15-0.81-0.31-1.19c-0.14-0.26-0.78-1.25-3-1.25c-1.48-0.12-2.78,0.99-2.89,2.47c-0.01,0.09-0.01,0.19-0.01,0.28
		c0,1.35,0.62,2.2,2.89,4l0.66,0.52c2.8,2.21,3.46,3.67,3.46,5.56c-0.01,1.56-0.75,3.02-2,3.94c-1.06,0.69-2.31,1.04-3.58,1
		C490.32,101.08,489.24,100.85,488.25,100.39z"/>
	<path style="fill:#FFFFFF;stroke:#FFFFFF;stroke-width:0.85;stroke-miterlimit:10;" d="M500.16,93.05
		c0.07-4.42,3.72-7.94,8.13-7.86c0.05,0,0.1,0,0.16,0c4.69,0,8.26,2.8,8.26,7.56c0.09,4.44-3.44,8.12-7.88,8.22
		c-0.17,0-0.33,0-0.5-0.01c-4.24,0.26-7.9-2.97-8.16-7.21C500.16,93.52,500.16,93.28,500.16,93.05z M514.49,93.34
		c0-4.76-2.94-7.42-6.18-7.42s-6,2-6,6.52c0,4.64,2.58,7.71,6.56,7.71C510.51,100.15,514.49,99.35,514.49,93.34z"/>
	<path style="fill:#FFFFFF;stroke:#FFFFFF;stroke-width:0.85;stroke-miterlimit:10;" d="M522.23,98.78c-1.69-1.53-2.61-3.73-2.53-6
		c0.05-2.07,0.91-4.03,2.39-5.47c1.28-1.23,3.2-2.11,6.37-2.11c1.05,0.01,2.09,0.1,3.12,0.27c0.76,0.11,1.52,0.23,2.09,0.25
		c0.19,0,0.21,0.12,0.21,0.24s-0.07,0.4-0.12,1.16c-0.05,0.76,0,1.89,0,2.18c0,0.29-0.08,0.45-0.19,0.45s-0.2-0.14-0.2-0.45
		c0-0.79-0.34-1.53-0.92-2.06c-1.23-0.84-2.7-1.26-4.19-1.21c-2.63,0-3.83,0.74-4.54,1.38c-1.54,1.39-1.9,3.1-1.9,5.18
		c0.01,4.07,3.29,7.36,7.36,7.39c1.62,0,2.8-0.17,3.63-1c0.42-0.48,0.69-1.07,0.78-1.7c0-0.24,0.12-0.35,0.26-0.35
		s0.12,0.16,0.12,0.33c-0.11,0.89-0.27,1.76-0.48,2.63c-0.06,0.28-0.27,0.51-0.54,0.59c-1.21,0.36-2.48,0.52-3.74,0.47
		C526.04,100.96,523.91,100.25,522.23,98.78z"/>
	<path style="fill:#FFFFFF;stroke:#FFFFFF;stroke-width:0.85;stroke-miterlimit:10;" d="M538.65,91.3c0-3.12,0-3.69,0-4.33
		s-0.19-1-0.69-1.09c-0.18-0.03-0.36-0.06-0.54-0.07c-0.17,0-0.26-0.07-0.26-0.17c0-0.1,0.09-0.16,0.35-0.16
		c0.74,0,2.08,0.07,2.16,0.07s1.47-0.07,2.13-0.07c0.24,0,0.35,0,0.35,0.16s-0.07,0.14-0.26,0.17h-0.42
		c-0.69,0.1-0.76,0.46-0.81,1.14c-0.05,0.68,0,1.19,0,4.31v3.55c0,1.82,0,3.48,0.09,4.33c0.1,0.69,0.19,0.95,0.81,1.09
		c0.3,0.06,0.6,0.09,0.9,0.1c0.21,0,0.26,0.07,0.26,0.16c0,0.09-0.1,0.17-0.33,0.17c-1.21,0-2.58-0.07-2.7-0.07
		s-1.47,0.07-2.13,0.07c-0.22,0-0.38,0-0.38-0.17s0.09-0.16,0.3-0.16c0.19-0.01,0.38-0.03,0.57-0.07c0.41-0.1,0.48-0.57,0.55-1.14
		c0.11-1.43,0.15-2.87,0.12-4.31L538.65,91.3z"/>
	<path style="fill:#FFFFFF;stroke:#FFFFFF;stroke-width:0.85;stroke-miterlimit:10;" d="M547.97,91.3c0-3.1,0-3.67-0.05-4.31
		s-0.21-1-0.9-1.14c-0.19-0.01-0.37-0.01-0.56,0c-0.17,0-0.31-0.07-0.31-0.14c0-0.07,0.11-0.19,0.35-0.19c0.48,0,1.12,0,2.44,0.07
		c0.12,0,4.33,0,4.81,0c0.31,0,0.62-0.04,0.92-0.12c0.14,0,0.17-0.08,0.26-0.08s0.1,0,0.1,0.17c-0.09,0.35-0.15,0.7-0.19,1.06
		c0,0.41-0.05,0.79-0.07,1.24c0,0.21,0,0.35-0.17,0.35s-0.17-0.09-0.17-0.26c-0.01-0.26-0.06-0.52-0.16-0.76
		c-0.14-0.47-0.36-0.64-1.54-0.71c-0.31,0-2.65,0-2.7,0s-0.12,0-0.12,0.18v5.38c0,0.14,0,0.24,0.14,0.24c0.29,0,2.7,0,3.2-0.07
		c0.5-0.07,0.9-0.1,1.09-0.36c0.19-0.26,0.16-0.19,0.26-0.19s0.09,0,0.09,0.14s-0.09,0.57-0.16,1.26s-0.07,1.13-0.1,1.44
		c-0.03,0.31-0.07,0.26-0.16,0.26s-0.14-0.14-0.14-0.31c-0.02-0.23-0.08-0.46-0.16-0.67c-0.09-0.31-0.23-0.64-1.13-0.72
		c-0.55,0-2.46-0.09-2.84-0.09c-0.14,0-0.17,0.07-0.17,0.17v1.72c0,0.74,0,2.82,0,3.23c0.05,0.87,0.17,1.32,0.67,1.53
		c0.55,0.19,1.14,0.26,1.72,0.22c0.6,0.03,1.21-0.02,1.8-0.15c0.71-0.21,0.88-0.68,1.07-1.56c0-0.24,0.12-0.33,0.21-0.33
		s0.14,0.22,0.14,0.36s-0.19,1.66-0.26,2s-0.26,0.53-1,0.53c-1.56,0-2.22,0-3.05,0s-1.92-0.07-2.8-0.07c-0.54,0-1,0.07-1.56,0.07
		c-0.21,0-0.33,0-0.33-0.17s0.09-0.16,0.21-0.16c0.16-0.01,0.32-0.03,0.47-0.07c0.43-0.1,0.72-0.4,0.76-1.87
		c0-0.81,0.05-1.78,0.05-3.58L547.97,91.3z"/>
	<path style="fill:#FFFFFF;stroke:#FFFFFF;stroke-width:0.85;stroke-miterlimit:10;" d="M565.38,94.85c0,1.82,0,3.51,0.12,4.38
		c0.07,0.57,0.12,0.9,0.71,1c0.31,0.06,0.62,0.1,0.93,0.1c0.18,0,0.28,0.07,0.28,0.14c0,0.07-0.07,0.19-0.31,0.19
		c-1.21,0-2.6-0.07-2.7-0.07s-1.49,0.07-2.1,0.07c-0.26,0-0.36,0-0.36-0.17s0.07-0.16,0.26-0.16c0.17,0.02,0.35,0.02,0.52,0
		c0.45-0.07,0.52-0.35,0.62-1.16c0.1-0.81,0.09-2.55,0.09-4.33V86.4c-0.78,0-2,0-3,0c-1.52,0-1.85,0.27-2.18,0.76
		c-0.15,0.23-0.26,0.48-0.35,0.74c-0.07,0.16-0.12,0.18-0.22,0.18s-0.12-0.09-0.12-0.21c0-0.12,0.34-1.7,0.48-2.34
		c0.07-0.29,0.14-0.38,0.21-0.38s0.62,0.21,1,0.26c0.83,0.1,1.49,0.12,1.52,0.12h7.76c0.57,0.01,1.14-0.03,1.71-0.12
		c0.15-0.04,0.3-0.08,0.45-0.1c0.09,0,0.14,0.13,0.14,0.22c0,0.66,0,2.22,0,2.41s-0.09,0.29-0.16,0.29s-0.17-0.1-0.17-0.29
		c0.01-0.11,0.01-0.22,0-0.33c-0.1-0.94-0.41-1.18-2.8-1.21h-2.32L565.38,94.85z"/>
	<path style="fill:#FFFFFF;stroke:#FFFFFF;stroke-width:0.85;stroke-miterlimit:10;" d="M579.17,95.54
		c0.06-0.76-0.12-1.53-0.52-2.18c-0.15-0.26-2.89-4.73-3.63-5.75c-0.32-0.54-0.73-1.03-1.2-1.45c-0.33-0.24-0.72-0.36-1.12-0.35
		c-0.14,0-0.26-0.07-0.26-0.19c0-0.12,0.1-0.14,0.29-0.14c0.37,0,2.17,0.07,2.22,0.07s0.93-0.07,1.8-0.07
		c0.24,0,0.31,0.07,0.31,0.14c0,0.07-0.07,0.14-0.26,0.19s-0.38,0.19-0.38,0.38c0.04,0.28,0.15,0.55,0.31,0.78
		c0.31,0.59,3.43,5.61,3.79,6.2c0.37-0.83,3-5.16,3.36-5.75c0.45-0.78,0.54-1,0.54-1.26c0-0.26-0.28-0.31-0.54-0.35
		c-0.26-0.04-0.26-0.1-0.26-0.19c0-0.09,0.05-0.14,0.28-0.14c0.57,0,1.07,0.07,1.44,0.07s1.69-0.07,2.09-0.07
		c0.21,0,0.28,0.07,0.28,0.14c0,0.07-0.12,0.19-0.28,0.19c-0.42-0.02-0.84,0.08-1.19,0.31c-0.36,0.27-0.65,0.61-0.87,1
		c-1.47,2.11-2.8,4.31-4,6.58c-0.21,0.6-0.29,1.24-0.23,1.87v1.73c0,0.16,0,1,0,1.89c0.05,0.57,0.1,1,0.83,1.11
		c0.29,0.06,0.58,0.09,0.88,0.1c0.19,0,0.26,0.07,0.26,0.14c0,0.07-0.07,0.19-0.28,0.19c-1.19,0-2.66-0.07-2.73-0.07
		s-1.46,0.07-2.13,0.07c-0.23,0-0.33-0.07-0.33-0.19c0-0.12,0.07-0.14,0.24-0.14c0.2,0,0.4-0.03,0.59-0.07
		c0.4-0.08,0.57-0.57,0.61-1.14c0.08-0.85,0.08-1.7,0.08-1.89L579.17,95.54z"/>
</g>
</svg>
